#N canvas 158 91 995 726 10;
#X obj 448 508 send~ feedback;
#X obj -17 95 receive~ feedback;
#X obj -17 206 *~;
#X obj -2 121 vsl 20 45 0 1 0 1 empty feedback empty 0 -9 0 10 #fcfcfc
#000000 #000000 3080 1;
#X floatatom -2 179 5 0 0 0 - - - 0;
#X text -54 75 feedback loop for more repeats;
#X obj 140 85 adc~;
#X obj 325 338 tabread4~ bucketBrigade;
#X text 366 270 <-- offset the index of the array by 1 so the 'read
head' is at the end of the circular buffer;
#X obj 325 275 +~ 1;
#X obj 399 52 hsl 128 15 -20 20 0 1 empty delaytime empty -2 -8 0 10
#fcfcfc #000000 #000000 6667 1;
#X floatatom 290 133 10 0 0 0 - - - 0;
#X obj 6 17 array define bucketBrigade 44100;
#X obj 290 229 *~ 44100;
#X obj 325 304 expr~ $v1 % 44100;
#X obj 290 176 line~;
#X obj 290 199 phasor~ 1;
#X obj 287 715 hsl 128 16 0 1 0 0 empty springdrywet DRY/WET -2 -6
0 12 #7c7c7c #fcfcfc #000000 0 1;
#X obj 284 757 line~;
#X floatatom 401 757 0 0 0 0 - - - 0;
#X msg 284 736 \$1 20;
#X obj 182 850 +~;
#X obj 214 783 -~;
#X obj 180 804 *~;
#X obj 269 783 *~;
#X obj 182 945 dac~ 1 2;
#X obj 214 757 sig~ 1;
#X obj 269 672 re.spring~;
#X obj 676 452 hsl 128 16 0 1 0 0 empty interpolated INTERPOLATED/S&H
-2 -6 0 12 #7c7c7c #fcfcfc #000000 0 1;
#X obj 673 494 line~;
#X floatatom 754 468 0 0 0 0 - - - 0;
#X msg 673 473 \$1 20;
#X obj 577 535 *~;
#X obj 658 535 *~;
#X obj 661 370 hsl 128 16 10 44100 1 0 empty frequency FREQUENCY -2
-6 0 12 #7c7c7c #fcfcfc #000000 0 1;
#X obj 658 412 line~;
#X floatatom 740 391 0 0 0 0 - - - 0;
#X msg 658 391 \$1 20;
#X obj 577 556 +~;
#X obj 592 489 sig~ 1;
#X obj 592 510 -~;
#X obj 577 433 fx.downsample~;
#X obj 727 92 loadbang;
#X obj 162 230 *~;
#X obj 217 150 hsl 60 15 0 1 0 0 empty delaymix DELAY\\\ MIX -2 -8
0 10 #fcfcfc #000000 #000000 0 1;
#X obj 82 285 *~;
#X obj 215 177 * -1;
#X obj 215 198 + 1;
#X floatatom 220 228 5 0 0 0 - - - 0;
#X obj 788 271 r pot5;
#X floatatom 801 355 12 0 0 0 - - - 0;
#X obj 791 315 + 2000;
#X obj 788 292 * 421;
#X obj 691 -1 r pot1;
#X obj 234 112 / 100;
#X obj 38 119 r pot2;
#X obj 38 148 / 100;
#X obj 233 89 r pot3;
#X obj 369 653 r pot4;
#X obj 364 685 / 100;
#X obj 835 412 r pot6;
#X obj 830 447 / 100;
#X obj 291 155 \$1 40;
#X obj 173 274 ipoke~ bucketBrigade;
#X obj 221 18 switchboard;
#X obj 577 628 *~ 1;
#X obj 273 596 *~ 1;
#X msg 712 124 \; frequency 11000 \; delaymix 0.5 \; delaytime 1 \;
feedback 0.7 \; springdrywet 0.5 \; interpolated 0.1 \;;
#X obj 693 22 * 0.2;
#X obj 689 45 - 10;
#X text 313 93 nearest 0 is longer;
#X obj 134 156 *~ 1.5;
#X connect 1 0 2 0;
#X connect 2 0 63 0;
#X connect 3 0 4 0;
#X connect 4 0 2 1;
#X connect 6 0 71 0;
#X connect 6 1 71 0;
#X connect 7 0 41 0;
#X connect 9 0 14 0;
#X connect 11 0 62 0;
#X connect 13 0 9 0;
#X connect 13 0 63 1;
#X connect 14 0 7 0;
#X connect 15 0 16 0;
#X connect 16 0 13 0;
#X connect 17 0 19 0;
#X connect 17 0 20 0;
#X connect 18 0 24 1;
#X connect 18 0 22 1;
#X connect 20 0 18 0;
#X connect 21 0 25 1;
#X connect 21 0 25 0;
#X connect 22 0 23 1;
#X connect 23 0 21 0;
#X connect 24 0 21 1;
#X connect 26 0 22 0;
#X connect 27 0 24 0;
#X connect 28 0 30 0;
#X connect 28 0 31 0;
#X connect 29 0 33 1;
#X connect 29 0 40 1;
#X connect 31 0 29 0;
#X connect 32 0 38 0;
#X connect 33 0 38 1;
#X connect 34 0 36 0;
#X connect 34 0 37 0;
#X connect 35 0 41 1;
#X connect 37 0 35 0;
#X connect 38 0 65 0;
#X connect 39 0 40 0;
#X connect 40 0 32 1;
#X connect 41 0 32 0;
#X connect 41 1 33 0;
#X connect 42 0 67 0;
#X connect 43 0 63 0;
#X connect 44 0 43 1;
#X connect 44 0 46 0;
#X connect 45 0 66 0;
#X connect 46 0 47 0;
#X connect 47 0 45 1;
#X connect 47 0 48 0;
#X connect 49 0 52 0;
#X connect 51 0 50 0;
#X connect 51 0 37 0;
#X connect 52 0 51 0;
#X connect 53 0 68 0;
#X connect 54 0 46 0;
#X connect 55 0 56 0;
#X connect 56 0 4 0;
#X connect 57 0 54 0;
#X connect 58 0 59 0;
#X connect 59 0 20 0;
#X connect 60 0 61 0;
#X connect 61 0 31 0;
#X connect 62 0 15 0;
#X connect 65 0 0 0;
#X connect 65 0 66 0;
#X connect 66 0 27 0;
#X connect 66 0 23 0;
#X connect 68 0 69 0;
#X connect 69 0 11 0;
#X connect 71 0 45 0;
#X connect 71 0 43 0;
