#N canvas 36 67 1246 841 12;
#X obj 13 14 loadbang;
#X obj -13 87 snapshot~;
#X obj 97 95 snapshot~;
#X obj 174 75 snapshot~;
#X obj 254 76 snapshot~;
#X obj 180 347 s knob3;
#X obj 254 341 s knob4;
#X obj 332 79 s bela_setDigital;
#X msg 265 376 connect bela.local 7562;
#X obj 286 577 netsend -u -b;
#X obj 413 504 list prepend send;
#X obj 412 529 list trim;
#X obj 318 862 list prepend send;
#X obj 317 889 list trim;
#X msg 410 556 disconnect;
#X obj 643 588 r switch1;
#X obj 431 382 bang;
#X obj 425 356 bng 15 250 50 0 empty empty empty 17 7 0 10 #fcfcfc
#000000 #000000;
#X obj 23 621 r knob1;
#X obj 27 654 vandemux;
#X obj 266 612 r knob2;
#X obj 290 661 vandemux;
#X obj 527 667 vandemux;
#X obj 680 701 vandemux;
#X obj 541 641 r knob3;
#X floatatom 111 743 5 0 0 0 - - - 0;
#X floatatom 222 726 5 0 0 0 - - - 0;
#X floatatom 337 717 5 0 0 0 - - - 0;
#X floatatom 465 684 5 0 0 0 - - - 0;
#X floatatom 590 770 5 0 0 0 - - - 0;
#X obj 693 667 r knob4;
#X floatatom 656 739 5 0 0 0 - - - 0;
#X floatatom 827 769 5 0 0 0 - - - 0;
#X obj 54 934 s pot5;
#X obj 207 935 s pot2;
#X obj 312 938 s pot6;
#X obj 439 933 s pot3;
#X obj 572 942 s pot7;
#X obj 678 931 s pot4;
#X obj 807 938 s pot8;
#X floatatom -12 732 5 0 0 0 - - - 0;
#X obj -36 932 s pot1;
#X obj 23 163 i;
#X floatatom 70 222 5 0 0 0 - - - 0;
#X obj 27 241 !=;
#X obj -9 270 spigot;
#X floatatom -9 300 5 0 0 0 - - - 0;
#X obj 25 190 t f f b;
#X obj 113 165 i;
#X floatatom 149 220 5 0 0 0 - - - 0;
#X obj 117 243 !=;
#X obj 81 272 spigot;
#X floatatom 81 296 5 0 0 0 - - - 0;
#X obj 115 192 t f f b;
#X obj 189 141 * 100;
#X obj 189 164 i;
#X floatatom 226 225 5 0 0 0 - - - 0;
#X obj 193 242 !=;
#X obj 157 271 spigot;
#X floatatom 157 295 5 0 0 0 - - - 0;
#X obj 191 191 t f f b;
#X obj 271 129 * 100;
#X obj 270 165 i;
#X floatatom 307 226 5 0 0 0 - - - 0;
#X obj 274 243 !=;
#X obj 238 272 spigot;
#X floatatom 240 294 5 0 0 0 - - - 0;
#X obj 272 192 t f f b;
#X obj 16 47 metro 250;
#X obj 107 143 * 100;
#X obj 95 319 min 100;
#X obj 11 321 min 100;
#X obj 22 110 / 0.83;
#X obj 34 132 * 100;
#X obj 111 121 / 0.83;
#X obj -2 354 s knob1;
#X obj 99 343 s knob2;
#X obj 191 111 / 0.83;
#X obj 272 105 / 0.83;
#X obj 104 46 adc~ 3 4 5 6;
#X obj 395 268 t b b;
#X obj 173 320 min 100;
#X obj 266 316 min 100;
#X floatatom 578 128 5 0 0 0 - - - 0;
#X obj 592 98 * 2;
#X obj 577 163 print 3way;
#X floatatom 861 128 5 0 0 0 - - - 0;
#X obj 875 98 * 2;
#X obj 511 198 s switch2;
#X obj 781 200 s switch1;
#X obj 860 163 print 3wayv2;
#X obj 414 476 oscformat mytext;
#X obj 318 833 oscformat /mynumbers;
#X obj 505 328 oscformat /clearscreen;
#X obj 445 296 t b b;
#X obj 492 44 r bela_digitalIn19;
#X obj 632 43 r bela_digitalIn20;
#X obj 775 44 r bela_digitalIn21;
#X obj 915 43 r bela_digitalIn22;
#X msg 332 36 in 19;
#X msg 391 10 in 20;
#X msg 444 12 in 21;
#X msg 392 37 in 22;
#X msg 123 432 0 16 Feedbk;
#X msg 229 431 0 32 DelMix;
#X msg 327 430 0 48 Spring;
#X msg 664 432 65 32 N/A;
#X msg 785 436 65 48 N/A;
#X obj 421 326 delay 500;
#X msg 20 429 0 0 Delay;
#X msg 434 430 65 0 DownFq;
#X msg 544 429 65 16 Interpl;
#X msg 11 829 44 0 \$1;
#X msg 111 822 109 0 \$1;
#X msg 233 843 44 16 \$1;
#X msg 359 795 109 16 \$1;
#X msg 473 786 44 32 \$1;
#X msg 539 795 109 32 \$1;
#X msg 628 826 44 48 \$1;
#X msg 789 797 109 48 \$1;
#X obj 110 879 oscformat /myfill;
#X obj 602 889 oscformat /myfill;
#X obj 22 802 44 0 20 10;
#X obj 23 773 t f b;
#X obj 135 770 t f b;
#X obj 134 799 109 0 20 10;
#X obj 237 758 t f b;
#X obj 258 789 44 16 20 10;
#X obj 381 731 t f b;
#X obj 399 762 109 16 20 10;
#X obj 516 712 t f b;
#X obj 636 771 t f b;
#X obj 672 800 44 48 20 10;
#X obj 30 690 spigot;
#X obj 86 697 r switch2;
#X text 526 239 switch2 turns off delay control if you've fixed it
to sometihng nice and don't want an analog knob moving about and spoiling
it.;
#X obj 546 742 44 32 20 10;
#X connect 0 0 99 0;
#X connect 0 0 68 0;
#X connect 0 0 102 0;
#X connect 0 0 100 0;
#X connect 0 0 101 0;
#X connect 0 0 80 0;
#X connect 0 0 86 0;
#X connect 1 0 72 0;
#X connect 2 0 74 0;
#X connect 3 0 77 0;
#X connect 4 0 78 0;
#X connect 8 0 9 0;
#X connect 10 0 11 0;
#X connect 11 0 9 0;
#X connect 12 0 13 0;
#X connect 13 0 9 0;
#X connect 14 0 9 0;
#X connect 15 0 19 1;
#X connect 15 0 21 1;
#X connect 15 0 22 1;
#X connect 15 0 23 1;
#X connect 16 0 105 0;
#X connect 16 0 109 0;
#X connect 16 0 104 0;
#X connect 16 0 103 0;
#X connect 16 0 110 0;
#X connect 16 0 111 0;
#X connect 16 0 106 0;
#X connect 16 0 107 0;
#X connect 17 0 16 0;
#X connect 18 0 19 0;
#X connect 19 0 133 0;
#X connect 19 1 25 0;
#X connect 20 0 21 0;
#X connect 21 0 26 0;
#X connect 21 1 27 0;
#X connect 22 0 28 0;
#X connect 22 1 29 0;
#X connect 23 0 31 0;
#X connect 23 1 32 0;
#X connect 24 0 22 0;
#X connect 25 0 33 0;
#X connect 25 0 124 0;
#X connect 26 0 34 0;
#X connect 26 0 126 0;
#X connect 27 0 128 0;
#X connect 27 0 35 0;
#X connect 28 0 36 0;
#X connect 28 0 130 0;
#X connect 29 0 37 0;
#X connect 29 0 117 0;
#X connect 30 0 23 0;
#X connect 31 0 38 0;
#X connect 31 0 131 0;
#X connect 32 0 39 0;
#X connect 32 0 119 0;
#X connect 40 0 41 0;
#X connect 40 0 123 0;
#X connect 42 0 47 0;
#X connect 43 0 44 1;
#X connect 44 0 45 1;
#X connect 45 0 46 0;
#X connect 46 0 43 0;
#X connect 46 0 71 0;
#X connect 47 0 45 0;
#X connect 47 1 44 0;
#X connect 47 2 43 0;
#X connect 48 0 53 0;
#X connect 49 0 50 1;
#X connect 50 0 51 1;
#X connect 51 0 52 0;
#X connect 52 0 49 0;
#X connect 52 0 70 0;
#X connect 53 0 51 0;
#X connect 53 1 50 0;
#X connect 53 2 49 0;
#X connect 54 0 55 0;
#X connect 55 0 60 0;
#X connect 56 0 57 1;
#X connect 57 0 58 1;
#X connect 58 0 59 0;
#X connect 59 0 56 0;
#X connect 59 0 81 0;
#X connect 60 0 58 0;
#X connect 60 1 57 0;
#X connect 60 2 56 0;
#X connect 61 0 62 0;
#X connect 62 0 67 0;
#X connect 63 0 64 1;
#X connect 64 0 65 1;
#X connect 65 0 66 0;
#X connect 66 0 63 0;
#X connect 66 0 82 0;
#X connect 67 0 65 0;
#X connect 67 1 64 0;
#X connect 67 2 63 0;
#X connect 68 0 1 0;
#X connect 68 0 2 0;
#X connect 68 0 3 0;
#X connect 68 0 4 0;
#X connect 69 0 48 0;
#X connect 70 0 76 0;
#X connect 71 0 75 0;
#X connect 72 0 73 0;
#X connect 73 0 42 0;
#X connect 74 0 69 0;
#X connect 77 0 54 0;
#X connect 78 0 61 0;
#X connect 79 0 1 0;
#X connect 79 1 2 0;
#X connect 79 2 3 0;
#X connect 79 3 4 0;
#X connect 80 0 94 0;
#X connect 80 1 8 0;
#X connect 81 0 5 0;
#X connect 82 0 6 0;
#X connect 83 0 85 0;
#X connect 83 0 88 0;
#X connect 84 0 83 0;
#X connect 86 0 90 0;
#X connect 86 0 89 0;
#X connect 87 0 86 0;
#X connect 91 0 10 0;
#X connect 92 0 12 0;
#X connect 93 0 10 0;
#X connect 94 0 108 0;
#X connect 94 1 93 0;
#X connect 95 0 83 0;
#X connect 96 0 84 0;
#X connect 97 0 86 0;
#X connect 98 0 87 0;
#X connect 99 0 7 0;
#X connect 100 0 7 0;
#X connect 101 0 7 0;
#X connect 102 0 7 0;
#X connect 103 0 91 0;
#X connect 104 0 91 0;
#X connect 105 0 91 0;
#X connect 106 0 91 0;
#X connect 107 0 91 0;
#X connect 108 0 17 0;
#X connect 109 0 91 0;
#X connect 110 0 91 0;
#X connect 111 0 91 0;
#X connect 112 0 92 0;
#X connect 113 0 92 0;
#X connect 113 0 120 0;
#X connect 114 0 92 0;
#X connect 115 0 92 0;
#X connect 116 0 92 0;
#X connect 117 0 92 0;
#X connect 118 0 92 0;
#X connect 119 0 92 0;
#X connect 120 0 12 0;
#X connect 121 0 12 0;
#X connect 122 0 120 0;
#X connect 123 0 112 0;
#X connect 123 1 122 0;
#X connect 124 0 113 0;
#X connect 124 1 125 0;
#X connect 126 0 114 0;
#X connect 126 1 127 0;
#X connect 127 0 120 0;
#X connect 128 0 115 0;
#X connect 128 1 129 0;
#X connect 129 0 121 0;
#X connect 130 0 116 0;
#X connect 130 1 136 0;
#X connect 131 0 118 0;
#X connect 131 1 132 0;
#X connect 132 0 121 0;
#X connect 133 0 40 0;
#X connect 134 0 133 1;
#X connect 136 0 121 0;
