#N canvas 122 50 1573 844 10;
#X obj 570 26 r deltime;
#N canvas 492 280 449 394 delay1 1;
#X obj 105 149 delread~ tapl;
#X obj 113 238 *~;
#X obj 165 175 r fback;
#X obj 22 548 delwrite~ tapl2 2000;
#X obj 157 63 r dtime;
#X obj 237 45 r delterval1;
#X obj 131 488 *~ 1;
#X obj 113 597 outlet~;
#X obj 227 77 t b f;
#X obj 190 109 / 1;
#X floatatom 270 81 5 0 0 0 - - - 0;
#X obj 211 531 pitchshifter~;
#X obj 301 418 inlet;
#X floatatom 262 477 5 0 0 0 - - - 0;
#X msg 309 454 transpose \$1;
#X obj 244 396 r pitch1;
#X floatatom 205 418 5 0 0 0 - - - 0;
#X obj 96 338 lop~;
#X obj 157 304 r lpass;
#X floatatom 177 334 5 0 0 0 - - - 0;
#X connect 0 0 1 0;
#X connect 1 0 17 0;
#X connect 2 0 1 1;
#X connect 4 0 9 0;
#X connect 5 0 8 0;
#X connect 5 0 10 0;
#X connect 6 0 11 0;
#X connect 8 0 9 0;
#X connect 8 1 9 1;
#X connect 9 0 0 0;
#X connect 11 0 7 0;
#X connect 12 0 11 1;
#X connect 12 0 13 0;
#X connect 14 0 11 1;
#X connect 15 0 14 0;
#X connect 15 0 16 0;
#X connect 17 0 3 0;
#X connect 17 0 6 0;
#X connect 18 0 17 1;
#X connect 18 0 19 0;
#X restore 380 251 pd delay1;
#X obj 504 56 vsl 15 128 0.01 1 0 0 empty empty empty 0 -9 0 10 #fcfcfc
#000000 #000000 0 1;
#X obj 488 28 r feedback;
#X obj 572 56 vsl 15 128 0 2000 0 0 empty empty empty 0 -9 0 10 #fcfcfc
#000000 #000000 0 1;
#X obj 871 272 delwrite~ tapl 5000;
#X obj 477 208 s fback;
#X obj 565 207 s dtime;
#N canvas 122 169 530 689 delay2 0;
#X obj 81 226 *~;
#X obj 133 163 r fback;
#X obj 125 51 r dtime;
#X obj 35 398 *~ 1;
#X obj 33 588 outlet~;
#X obj 195 65 t b f;
#X obj 158 97 / 1;
#X floatatom 238 69 5 0 0 0 - - - 0;
#X obj 73 137 delread~ tapl2;
#X obj 240 594 delwrite~ tapl3 2000;
#X obj 205 33 r delterval2;
#X obj 246 515 *~ 1;
#X obj 76 535 pitchshifter~;
#X obj 126 459 inlet;
#X msg 265 426 transpose \$1;
#X obj 195 401 r pitch2;
#X obj 85 306 lop~;
#X obj 157 304 r lpass;
#X connect 0 0 16 0;
#X connect 1 0 0 1;
#X connect 2 0 6 0;
#X connect 3 0 12 0;
#X connect 5 0 6 0;
#X connect 5 1 6 1;
#X connect 6 0 8 0;
#X connect 8 0 0 0;
#X connect 10 0 5 0;
#X connect 10 0 7 0;
#X connect 11 0 9 0;
#X connect 12 0 4 0;
#X connect 13 0 12 1;
#X connect 14 0 12 1;
#X connect 15 0 14 0;
#X connect 16 0 3 0;
#X connect 16 0 11 0;
#X connect 17 0 16 1;
#X restore 335 294 pd delay2;
#N canvas 838 155 722 785 delay3 1;
#X obj 81 226 *~;
#X obj 133 163 r fback;
#X obj 125 51 r dtime;
#X obj 35 398 *~ 1;
#X obj 33 588 outlet~;
#X obj 195 65 t b f;
#X obj 158 97 / 1;
#X floatatom 238 69 5 0 0 0 - - - 0;
#X obj 73 137 delread~ tapl3;
#X obj 239 603 delwrite~ tapl4 2000;
#X obj 205 33 r delterval3;
#X obj 245 524 *~ 1;
#X obj 95 527 pitchshifter~;
#X msg 290 444 transpose \$1;
#X obj 224 426 r pitch3;
#X obj 85 306 lop~;
#X obj 157 304 r lpass;
#X connect 0 0 15 0;
#X connect 1 0 0 1;
#X connect 2 0 6 0;
#X connect 3 0 12 0;
#X connect 5 0 6 0;
#X connect 5 1 6 1;
#X connect 6 0 8 0;
#X connect 8 0 0 0;
#X connect 10 0 5 0;
#X connect 10 0 7 0;
#X connect 11 0 9 0;
#X connect 12 0 4 0;
#X connect 13 0 12 1;
#X connect 14 0 13 0;
#X connect 15 0 3 0;
#X connect 15 0 11 0;
#X connect 16 0 15 1;
#X restore 300 343 pd delay3;
#X obj 611 393 *~;
#X obj 658 366 tgl 15 0 empty empty empty 17 7 0 10 #fcfcfc #000000
#000000 0 1;
#N canvas 567 111 795 836 delay4 0;
#X obj 81 226 *~;
#X obj 133 163 r fback;
#X obj 125 51 r dtime;
#X obj 35 398 *~ 1;
#X obj 33 588 outlet~;
#X obj 195 65 t b f;
#X obj 158 97 / 1;
#X floatatom 238 69 5 0 0 0 - - - 0;
#X obj 73 137 delread~ tapl4;
#X obj 205 33 r delterval4;
#X obj 229 596 s~ backtothestart;
#X obj 235 517 *~ 1;
#X obj 90 510 pitchshifter~;
#X obj 247 316 inlet;
#X msg 319 435 transpose \$1;
#X obj 253 417 r pitch4;
#X obj 85 306 lop~;
#X obj 157 304 r lpass;
#X connect 0 0 16 0;
#X connect 1 0 0 1;
#X connect 2 0 6 0;
#X connect 3 0 12 0;
#X connect 5 0 6 0;
#X connect 5 1 6 1;
#X connect 6 0 8 0;
#X connect 8 0 0 0;
#X connect 9 0 5 0;
#X connect 9 0 7 0;
#X connect 11 0 10 0;
#X connect 12 0 4 0;
#X connect 13 0 12 1;
#X connect 14 0 12 1;
#X connect 15 0 14 0;
#X connect 16 0 3 0;
#X connect 16 0 11 0;
#X connect 17 0 16 1;
#X restore 267 388 pd delay4;
#X obj 702 339 loadbang;
#X obj 1282 148 loadbang;
#X floatatom 1123 69 5 0 0 0 - - - 0;
#X obj 1201 144 select 0 1;
#X msg 1233 173 1;
#X msg 1201 174 0;
#X obj 291 52 vsl 15 128 0 8000 0 0 empty romni empty 0 -9 0 10 #fcfcfc
#000000 #000000 0 1;
#X obj 1123 89 * -1;
#X obj 1123 107 + 1;
#X floatatom 1123 131 5 0 0 0 - - - 0;
#X obj 593 491 dac~ 1 2;
#X obj 958 41 adc~ 1 2;
#X obj 831 162 r~ backtothestart;
#X obj 490 263 expr if (($f1 >= 99) \, 0 \, 1);
#X text 488 287 cuts input above 99;
#X obj 233 52 r pot3;
#X obj 701 114 i;
#X obj 703 84 + 40;
#X floatatom 652 165 5 0 0 0 - - - 0;
#X floatatom 651 116 5 0 0 0 - - - 0;
#X obj 652 140 expr 60000/$f1;
#X obj 682 26 r pot1;
#X obj 702 54 * 1.6;
#X obj 384 27 r pot2;
#X obj 384 48 / 100;
#X obj 385 88 max 0.01;
#X floatatom 388 115 5 0 0 0 - - - 0;
#X obj 81 27 switchboard;
#X obj 1155 9 r pot4;
#X obj 1116 203 *~ 1;
#X obj 1015 179 *~;
#X obj 1074 240 *~;
#X obj 1153 39 / 100;
#X obj 276 199 s lpass;
#X obj 233 75 * 70;
#X obj 220 107 + 1000;
#X connect 0 0 4 0;
#X connect 1 0 23 0;
#X connect 1 0 23 1;
#X connect 2 0 6 0;
#X connect 2 0 26 0;
#X connect 3 0 2 0;
#X connect 4 0 7 0;
#X connect 8 0 23 0;
#X connect 8 0 23 1;
#X connect 9 0 23 0;
#X connect 9 0 23 1;
#X connect 10 0 23 0;
#X connect 10 0 23 1;
#X connect 11 0 10 1;
#X connect 12 0 23 0;
#X connect 12 0 23 1;
#X connect 13 0 11 0;
#X connect 14 0 17 0;
#X connect 15 0 20 0;
#X connect 15 0 44 1;
#X connect 16 0 18 0;
#X connect 16 1 17 0;
#X connect 17 0 42 1;
#X connect 18 0 42 1;
#X connect 19 0 46 0;
#X connect 20 0 21 0;
#X connect 21 0 22 0;
#X connect 22 0 43 1;
#X connect 24 0 42 0;
#X connect 24 0 43 0;
#X connect 24 1 42 0;
#X connect 24 1 43 0;
#X connect 25 0 5 0;
#X connect 26 0 16 0;
#X connect 28 0 47 0;
#X connect 29 0 32 0;
#X connect 30 0 29 0;
#X connect 31 0 4 0;
#X connect 32 0 33 0;
#X connect 33 0 31 0;
#X connect 34 0 35 0;
#X connect 35 0 30 0;
#X connect 36 0 37 0;
#X connect 37 0 38 0;
#X connect 38 0 39 0;
#X connect 39 0 2 0;
#X connect 41 0 45 0;
#X connect 42 0 44 0;
#X connect 43 0 10 0;
#X connect 44 0 5 0;
#X connect 45 0 15 0;
#X connect 47 0 48 0;
#X connect 48 0 46 0;
