#N canvas 10 73 450 300 10;
#X obj 144 17 inlet~;
#X obj 202 17 inlet~;
#X obj 158 245 outlet~;
#X obj 314 26 inlet;
#X obj 314 165 line~;
#X obj 201 182 *~;
#X obj 314 85 route 0;
#X msg 360 113 1;
#X obj 313 197 expr~ 1-$v1;
#X obj 143 213 *~;
#X msg 314 139 \$1 20;
#X msg 314 57 \$1 \$1;
#X connect 0 0 9 0;
#X connect 1 0 5 0;
#X connect 3 0 11 0;
#X connect 4 0 5 1;
#X connect 4 0 8 0;
#X connect 5 0 2 0;
#X connect 6 0 10 0;
#X connect 6 1 7 0;
#X connect 7 0 10 0;
#X connect 8 0 9 1;
#X connect 9 0 2 0;
#X connect 10 0 4 0;
#X connect 11 0 6 0;
