#N canvas 43 0 1004 966 12;
#X obj 13 14 loadbang;
#X obj -13 87 snapshot~;
#X obj 97 95 snapshot~;
#X obj 174 75 snapshot~;
#X obj 254 76 snapshot~;
#X obj 180 342 s knob3;
#X obj 254 341 s knob4;
#X obj 332 79 s bela_setDigital;
#X msg 40 383 connect bela.local 7562;
#X obj 286 577 netsend -u -b;
#X obj 413 504 list prepend send;
#X obj 412 529 list trim;
#X obj 318 862 list prepend send;
#X obj 326 891 list trim;
#X msg 410 556 disconnect;
#X obj 643 588 r switch1;
#X obj 431 382 bang;
#X obj 425 356 bng 15 250 50 0 empty empty empty 17 7 0 10 #fcfcfc
#000000 #000000;
#X obj 14 628 r knob1;
#X obj 36 675 vandemux;
#X obj 259 651 r knob2;
#X obj 277 680 vandemux;
#X obj 479 679 vandemux;
#X obj 680 674 vandemux;
#X obj 478 644 r knob3;
#X floatatom 66 724 5 0 0 0 - - - 0;
#X floatatom 210 725 5 0 0 0 - - - 0;
#X floatatom 289 728 5 0 0 0 - - - 0;
#X floatatom 433 719 5 0 0 0 - - - 0;
#X floatatom 536 723 5 0 0 0 - - - 0;
#X obj 688 641 r knob4;
#X floatatom 671 715 5 0 0 0 - - - 0;
#X floatatom 729 717 5 0 0 0 - - - 0;
#X obj 180 834 s pot2;
#X obj 390 786 s pot3;
#X obj 592 836 s pot4;
#X floatatom -2 726 5 0 0 0 - - - 0;
#X obj -22 834 s pot1;
#X obj 23 163 i;
#X floatatom 70 222 5 0 0 0 - - - 0;
#X obj 27 241 !=;
#X obj -9 270 spigot;
#X floatatom -9 300 5 0 0 0 - - - 0;
#X obj 25 190 t f f b;
#X obj 113 165 i;
#X floatatom 149 220 5 0 0 0 - - - 0;
#X obj 117 243 !=;
#X obj 81 272 spigot;
#X floatatom 81 296 5 0 0 0 - - - 0;
#X obj 115 192 t f f b;
#X obj 189 141 * 100;
#X obj 189 164 i;
#X floatatom 226 225 5 0 0 0 - - - 0;
#X obj 193 242 !=;
#X obj 157 271 spigot;
#X floatatom 157 295 5 0 0 0 - - - 0;
#X obj 191 191 t f f b;
#X obj 271 129 * 100;
#X obj 270 165 i;
#X floatatom 307 226 5 0 0 0 - - - 0;
#X obj 274 243 !=;
#X obj 238 272 spigot;
#X floatatom 240 294 5 0 0 0 - - - 0;
#X obj 272 192 t f f b;
#X obj 16 47 metro 250;
#X obj 107 143 * 100;
#X obj 95 319 min 100;
#X obj 11 321 min 100;
#X obj 20 112 / 0.83;
#X obj 31 137 * 100;
#X obj 111 121 / 0.83;
#X obj -8 346 s knob1;
#X obj 99 343 s knob2;
#X obj 191 111 / 0.83;
#X obj 272 105 / 0.83;
#X obj 104 46 adc~ 3 4 5 6;
#X obj 395 268 t b b;
#X obj 173 320 min 100;
#X obj 266 316 min 100;
#X floatatom 578 128 5 0 0 0 - - - 0;
#X obj 592 98 * 2;
#X obj 577 163 print 3way;
#X floatatom 861 128 5 0 0 0 - - - 0;
#X obj 875 98 * 2;
#X obj 511 198 s switch2;
#X obj 781 200 s switch1;
#X obj 860 163 print 3wayv2;
#X obj 414 476 oscformat mytext;
#X obj 318 833 oscformat /mynumbers;
#X obj 505 328 oscformat /clearscreen;
#X obj 421 326 delay 1000;
#X obj 445 296 t b b;
#X obj 492 44 r bela_digitalIn19;
#X obj 632 43 r bela_digitalIn20;
#X obj 775 44 r bela_digitalIn21;
#X obj 915 43 r bela_digitalIn22;
#X msg 332 36 in 19;
#X msg 391 10 in 20;
#X msg 444 12 in 21;
#X msg 392 37 in 22;
#X msg 123 432 0 16 Feedbk;
#X msg 20 429 0 0 BPM;
#X msg 327 430 0 48 DelMix;
#X msg 229 431 0 32 LowPas;
#X msg 434 430 65 0 D1;
#X msg 544 429 65 16 D2;
#X msg 664 432 65 32 D3;
#X msg 785 436 65 48 D4;
#X obj 141 983 i;
#X msg 33 1057 1;
#X msg 64 1058 2;
#X msg 94 1059 3;
#X obj -10 1103 s delterval1;
#X floatatom 118 724 5 0 0 0 - - - 0;
#X obj 36 837 / 4.05;
#X floatatom 35 903 5 0 0 0 - - - 0;
#X obj 35 879 i;
#X obj 35 858 - 12;
#X obj 345 1027 i;
#X msg 261 1110 1;
#X msg 292 1111 2;
#X msg 322 1112 3;
#X obj 231 851 / 4.05;
#X floatatom 218 919 5 0 0 0 - - - 0;
#X obj 230 893 i;
#X obj 230 872 - 12;
#X floatatom 354 725 5 0 0 0 - - - 0;
#X msg 99 1101 110 0 \$1;
#X msg 327 1154 110 16 \$1;
#X obj 218 1156 s delterval2;
#X floatatom 593 716 5 0 0 0 - - - 0;
#X obj 561 890 i;
#X msg 498 1027 1;
#X msg 529 1028 2;
#X msg 559 1029 3;
#X obj 487 844 / 4.05;
#X floatatom 485 910 5 0 0 0 - - - 0;
#X obj 486 886 i;
#X obj 486 865 - 12;
#X obj 455 1073 s delterval3;
#X msg 570 1107 110 32 \$1;
#X floatatom 831 718 5 0 0 0 - - - 0;
#X obj 865 932 i;
#X msg 809 1017 1;
#X msg 846 1015 2;
#X msg 876 1016 3;
#X obj 711 832 / 4.05;
#X floatatom 707 903 5 0 0 0 - - - 0;
#X obj 710 874 i;
#X obj 710 853 - 12;
#X msg 881 1058 110 48 \$1;
#X obj 772 1060 s delterval4;
#X obj -29 1000 s pitch1;
#X obj 185 1069 s pitch2;
#X obj 417 1000 s pitch3;
#X obj 636 1034 s pitch4;
#X obj 142 612 hsl 128 15 0 100 0 0 empty empty empty -2 -8 0 10 #fcfcfc
#000000 #000000 0 1;
#X msg 1 803 44 0 \$1;
#X msg 207 797 44 16 \$1;
#X obj 302 939 oscformat /myfill;
#X obj 14 781 44 0 20 10;
#X obj 17 755 t f b;
#X obj 226 750 t f b;
#X obj 223 776 44 16 20 10;
#X obj 461 741 t f b;
#X msg 452 794 44 32 \$1;
#X msg 637 799 44 48 \$1;
#X obj 458 767 44 32 20 10;
#X obj 669 742 t f b;
#X obj 666 768 44 48 20 10;
#X obj 450 1184 list prepend send;
#X obj 458 1213 list trim;
#X obj 450 1155 oscformat /mynumbers;
#X obj 471 958 listsym;
#X obj 709 969 listsym;
#X obj 217 986 listsym;
#X obj 36 951 listsym;
#X obj 558 858 / 34;
#X obj 862 900 / 34;
#X obj 142 954 / 34;
#X obj 342 995 / 34;
#X obj 267 1063 select 0 1 2;
#X obj 39 1010 select 0 1 2;
#X obj 504 980 select 0 1 2;
#X obj 821 967 select 0 1 2;
#X obj 709 933 t f b;
#X obj 483 932 t f b;
#X obj 232 950 t f b;
#X obj 41 929 t f b;
#X msg 33 975 86 0 \$1;
#X msg 207 1013 86 16 \$1;
#X msg 441 975 86 32 \$1;
#X msg 759 943 86 48 19 10;
#X msg 704 1014 86 48 \$1;
#X msg 91 922 86 0 21 10;
#X msg 278 975 86 16 21 10;
#X msg 539 959 86 32 21 10;
#X connect 0 0 96 0;
#X connect 0 0 64 0;
#X connect 0 0 99 0;
#X connect 0 0 97 0;
#X connect 0 0 98 0;
#X connect 0 0 76 0;
#X connect 1 0 68 0;
#X connect 2 0 70 0;
#X connect 3 0 73 0;
#X connect 4 0 74 0;
#X connect 8 0 9 0;
#X connect 10 0 11 0;
#X connect 11 0 9 0;
#X connect 12 0 13 0;
#X connect 13 0 9 0;
#X connect 14 0 9 0;
#X connect 15 0 19 1;
#X connect 15 0 21 1;
#X connect 15 0 22 1;
#X connect 15 0 23 1;
#X connect 16 0 102 0;
#X connect 16 0 101 0;
#X connect 16 0 103 0;
#X connect 16 0 100 0;
#X connect 16 0 104 0;
#X connect 16 0 105 0;
#X connect 16 0 107 0;
#X connect 16 0 106 0;
#X connect 17 0 16 0;
#X connect 18 0 19 0;
#X connect 19 0 25 0;
#X connect 19 1 36 0;
#X connect 19 2 113 0;
#X connect 20 0 21 0;
#X connect 21 0 27 0;
#X connect 21 1 26 0;
#X connect 21 2 126 0;
#X connect 22 0 29 0;
#X connect 22 1 28 0;
#X connect 22 2 130 0;
#X connect 23 0 32 0;
#X connect 23 1 31 0;
#X connect 23 2 141 0;
#X connect 24 0 22 0;
#X connect 25 0 114 0;
#X connect 26 0 33 0;
#X connect 26 0 162 0;
#X connect 27 0 122 0;
#X connect 28 0 34 0;
#X connect 28 0 164 0;
#X connect 29 0 135 0;
#X connect 30 0 23 0;
#X connect 31 0 35 0;
#X connect 31 0 168 0;
#X connect 32 0 146 0;
#X connect 36 0 37 0;
#X connect 36 0 161 0;
#X connect 38 0 43 0;
#X connect 39 0 40 1;
#X connect 40 0 41 1;
#X connect 41 0 42 0;
#X connect 42 0 39 0;
#X connect 42 0 67 0;
#X connect 43 0 41 0;
#X connect 43 1 40 0;
#X connect 43 2 39 0;
#X connect 44 0 49 0;
#X connect 45 0 46 1;
#X connect 46 0 47 1;
#X connect 47 0 48 0;
#X connect 48 0 45 0;
#X connect 48 0 66 0;
#X connect 49 0 47 0;
#X connect 49 1 46 0;
#X connect 49 2 45 0;
#X connect 50 0 51 0;
#X connect 51 0 56 0;
#X connect 52 0 53 1;
#X connect 53 0 54 1;
#X connect 54 0 55 0;
#X connect 55 0 52 0;
#X connect 55 0 77 0;
#X connect 56 0 54 0;
#X connect 56 1 53 0;
#X connect 56 2 52 0;
#X connect 57 0 58 0;
#X connect 58 0 63 0;
#X connect 59 0 60 1;
#X connect 60 0 61 1;
#X connect 61 0 62 0;
#X connect 62 0 59 0;
#X connect 62 0 78 0;
#X connect 63 0 61 0;
#X connect 63 1 60 0;
#X connect 63 2 59 0;
#X connect 64 0 1 0;
#X connect 64 0 2 0;
#X connect 64 0 3 0;
#X connect 64 0 4 0;
#X connect 65 0 44 0;
#X connect 66 0 72 0;
#X connect 67 0 71 0;
#X connect 68 0 69 0;
#X connect 69 0 38 0;
#X connect 70 0 65 0;
#X connect 73 0 50 0;
#X connect 74 0 57 0;
#X connect 75 0 1 0;
#X connect 75 1 2 0;
#X connect 75 2 3 0;
#X connect 75 3 4 0;
#X connect 76 0 91 0;
#X connect 76 1 8 0;
#X connect 77 0 5 0;
#X connect 78 0 6 0;
#X connect 79 0 81 0;
#X connect 79 0 84 0;
#X connect 80 0 79 0;
#X connect 82 0 86 0;
#X connect 82 0 85 0;
#X connect 83 0 82 0;
#X connect 87 0 10 0;
#X connect 88 0 12 0;
#X connect 89 0 10 0;
#X connect 90 0 17 0;
#X connect 91 0 90 0;
#X connect 91 1 89 0;
#X connect 92 0 79 0;
#X connect 93 0 80 0;
#X connect 94 0 82 0;
#X connect 95 0 83 0;
#X connect 96 0 7 0;
#X connect 97 0 7 0;
#X connect 98 0 7 0;
#X connect 99 0 7 0;
#X connect 100 0 87 0;
#X connect 101 0 87 0;
#X connect 102 0 87 0;
#X connect 103 0 87 0;
#X connect 104 0 87 0;
#X connect 105 0 87 0;
#X connect 106 0 87 0;
#X connect 107 0 87 0;
#X connect 108 0 182 0;
#X connect 109 0 112 0;
#X connect 109 0 127 0;
#X connect 110 0 112 0;
#X connect 110 0 127 0;
#X connect 111 0 112 0;
#X connect 111 0 127 0;
#X connect 113 0 179 0;
#X connect 114 0 117 0;
#X connect 115 0 152 0;
#X connect 115 0 188 0;
#X connect 116 0 115 0;
#X connect 117 0 116 0;
#X connect 118 0 181 0;
#X connect 119 0 128 0;
#X connect 119 0 129 0;
#X connect 120 0 128 0;
#X connect 120 0 129 0;
#X connect 121 0 128 0;
#X connect 121 0 129 0;
#X connect 122 0 125 0;
#X connect 123 0 153 0;
#X connect 123 0 187 0;
#X connect 124 0 123 0;
#X connect 125 0 124 0;
#X connect 126 0 180 0;
#X connect 127 0 88 0;
#X connect 128 0 88 0;
#X connect 130 0 177 0;
#X connect 131 0 183 0;
#X connect 132 0 140 0;
#X connect 132 0 139 0;
#X connect 133 0 140 0;
#X connect 133 0 139 0;
#X connect 134 0 140 0;
#X connect 134 0 139 0;
#X connect 135 0 138 0;
#X connect 136 0 154 0;
#X connect 136 0 186 0;
#X connect 137 0 136 0;
#X connect 138 0 137 0;
#X connect 140 0 88 0;
#X connect 141 0 178 0;
#X connect 142 0 184 0;
#X connect 143 0 150 0;
#X connect 143 0 151 0;
#X connect 144 0 150 0;
#X connect 144 0 151 0;
#X connect 145 0 150 0;
#X connect 145 0 151 0;
#X connect 146 0 149 0;
#X connect 147 0 155 0;
#X connect 147 0 185 0;
#X connect 148 0 147 0;
#X connect 149 0 148 0;
#X connect 150 0 88 0;
#X connect 156 0 114 0;
#X connect 157 0 88 0;
#X connect 158 0 88 0;
#X connect 159 0 12 0;
#X connect 160 0 159 0;
#X connect 161 0 157 0;
#X connect 161 1 160 0;
#X connect 162 0 158 0;
#X connect 162 1 163 0;
#X connect 163 0 159 0;
#X connect 164 0 165 0;
#X connect 164 1 167 0;
#X connect 165 0 88 0;
#X connect 166 0 88 0;
#X connect 167 0 159 0;
#X connect 168 0 166 0;
#X connect 168 1 169 0;
#X connect 169 0 159 0;
#X connect 170 0 171 0;
#X connect 172 0 170 0;
#X connect 173 0 191 0;
#X connect 174 0 193 0;
#X connect 175 0 190 0;
#X connect 176 0 189 0;
#X connect 177 0 131 0;
#X connect 178 0 142 0;
#X connect 179 0 108 0;
#X connect 180 0 118 0;
#X connect 181 0 119 0;
#X connect 181 1 120 0;
#X connect 181 2 121 0;
#X connect 182 0 109 0;
#X connect 182 1 110 0;
#X connect 182 2 111 0;
#X connect 183 0 132 0;
#X connect 183 1 133 0;
#X connect 183 2 134 0;
#X connect 184 0 143 0;
#X connect 184 1 144 0;
#X connect 184 2 145 0;
#X connect 185 0 174 0;
#X connect 185 1 192 0;
#X connect 186 0 173 0;
#X connect 186 1 196 0;
#X connect 187 0 175 0;
#X connect 187 1 195 0;
#X connect 188 0 176 0;
#X connect 188 1 194 0;
#X connect 189 0 87 0;
#X connect 190 0 87 0;
#X connect 191 0 87 0;
#X connect 192 0 159 0;
#X connect 193 0 87 0;
#X connect 194 0 159 0;
#X connect 195 0 159 0;
#X connect 196 0 159 0;
