#N canvas 721 37 1257 300 10;
#X obj 21 150 greyhole;
#X obj 571 33 adc~ 1 2;
#X obj 122 271 dac~ 1 2;
#X obj 654 5 r pot4;
#X obj 574 105 *~ 1;
#X obj 703 47 * -1;
#X obj 667 102 *~ 0;
#X obj 655 29 / 100;
#X obj 705 77 + 1;
#X obj 35 30 switchboard;
#X connect 0 1 2 0;
#X connect 0 2 2 1;
#X connect 1 0 4 0;
#X connect 1 0 6 0;
#X connect 3 0 7 0;
#X connect 4 0 0 1;
#X connect 4 0 0 2;
#X connect 5 0 8 0;
#X connect 6 0 2 0;
#X connect 6 0 2 1;
#X connect 7 0 5 0;
#X connect 7 0 4 1;
#X connect 8 0 6 1;
