#N canvas 98 131 1920 976 10;
#X obj 70 150 inlet~;
#X obj 130 150 inlet~;
#X obj 10 150 inlet;
#X obj 190 150 r \$0-read;
#X obj 190 180 faust-control \$0;
#X obj 190 210 s \$0-write;
#X obj 10 210 r \$0-in;
#X obj 10 240 greyhole~;
#X obj 10 270 s \$0-out;
#X obj 70 300 outlet~;
#X obj 130 300 outlet~;
#X obj 10 300 outlet;
#X obj 10 30 hsl 128 15 0.001 1.45 0 0 \$0-Greyhole/Mix/delayTime \$0-Greyhole/Mix/delayTime
delayTime -2 -6 0 10 #fcfcfc #000000 #000000 0 1;
#X obj 160 30 nbx 5 14 0.001 1.45 0 0 \$0-Greyhole/Mix/delayTime \$0-Greyhole/Mix/delayTime
empty 0 -6 0 10 #fcfcfc #000000 #000000 0 256;
#X obj 235 30 hsl 128 15 0 0.99 0 0 \$0-Greyhole/Mix/damping \$0-Greyhole/Mix/damping
damping -2 -6 0 10 #fcfcfc #000000 #000000 0 1;
#X obj 385 30 nbx 5 14 0 0.99 0 0 \$0-Greyhole/Mix/damping \$0-Greyhole/Mix/damping
empty 0 -6 0 10 #fcfcfc #000000 #000000 0 256;
#X obj 460 30 hsl 128 15 0.5 3 0 0 \$0-Greyhole/Mix/size \$0-Greyhole/Mix/size
size -2 -6 0 10 #fcfcfc #000000 #000000 0 1;
#X obj 610 30 nbx 5 14 0.5 3 0 0 \$0-Greyhole/Mix/size \$0-Greyhole/Mix/size
empty 0 -6 0 10 #fcfcfc #000000 #000000 0 256;
#X obj 685 30 hsl 128 15 0 0.99 0 0 \$0-Greyhole/Mix/diffusion \$0-Greyhole/Mix/diffusion
diffusion -2 -6 0 10 #fcfcfc #000000 #000000 0 1;
#X obj 835 30 nbx 5 14 0 0.99 0 0 \$0-Greyhole/Mix/diffusion \$0-Greyhole/Mix/diffusion
empty 0 -6 0 10 #fcfcfc #000000 #000000 0 256;
#X obj 910 30 hsl 128 15 0 1 0 0 \$0-Greyhole/Mix/feedback \$0-Greyhole/Mix/feedback
feedback -2 -6 0 10 #fcfcfc #000000 #000000 0 1;
#X obj 1060 30 nbx 5 14 0 1 0 0 \$0-Greyhole/Mix/feedback \$0-Greyhole/Mix/feedback
empty 0 -6 0 10 #fcfcfc #000000 #000000 0 256;
#X obj 10 60 hsl 128 15 0 1 0 0 \$0-Greyhole/Mod/modDepth \$0-Greyhole/Mod/modDepth
modDepth -2 -6 0 10 #fcfcfc #000000 #000000 0 1;
#X obj 160 60 nbx 5 14 0 1 0 0 \$0-Greyhole/Mod/modDepth \$0-Greyhole/Mod/modDepth
empty 0 -6 0 10 #fcfcfc #000000 #000000 0 256;
#X obj 235 60 hsl 128 15 0 10 0 0 \$0-Greyhole/Mod/modFreq \$0-Greyhole/Mod/modFreq
modFreq -2 -6 0 10 #fcfcfc #000000 #000000 0 1;
#X obj 385 60 nbx 5 14 0 10 0 0 \$0-Greyhole/Mod/modFreq \$0-Greyhole/Mod/modFreq
empty 0 -6 0 10 #fcfcfc #000000 #000000 0 256;
#X obj 1097 3 bng 15 250 50 1 \$0-init \$0-ignore empty 0 -6 0 10 #fcfcfc
#000000 #000000;
#X obj 1117 3 tgl 15 1 \$0-active \$0-active empty 0 -6 0 10 #fcfcfc
#000000 #000000 1 1;
#X obj 1165 10 r \$0-init;
#X obj 1389 8 s \$0-in;
#X obj 1525 10 s \$0-read;
#X obj 1645 10 r \$0-write;
#X msg 1182 32 1;
#X obj 1185 56 s \$0-active;
#X obj 1405 30 r \$0-active;
#X msg 1405 50 active \$1;
#X obj 1645 30 route active;
#X obj 1645 50 s \$0-active;
#X msg 1157 67 0.2;
#X obj 1177 93 s \$0-Greyhole/Mix/delayTime;
#X obj 1405 70 r \$0-Greyhole/Mix/delayTime;
#X msg 1405 90 /Greyhole/Mix/delayTime \$1;
#X obj 1645 70 route /Greyhole/Mix/delayTime;
#X obj 1645 90 s \$0-Greyhole/Mix/delayTime;
#X msg 1165 110 0;
#X obj 1165 130 s \$0-Greyhole/Mix/damping;
#X obj 1405 110 r \$0-Greyhole/Mix/damping;
#X msg 1405 130 /Greyhole/Mix/damping \$1;
#X obj 1645 110 route /Greyhole/Mix/damping;
#X obj 1645 130 s \$0-Greyhole/Mix/damping;
#X msg 1165 150 1;
#X obj 1165 170 s \$0-Greyhole/Mix/size;
#X obj 1405 150 r \$0-Greyhole/Mix/size;
#X msg 1405 170 /Greyhole/Mix/size \$1;
#X obj 1645 150 route /Greyhole/Mix/size;
#X obj 1645 170 s \$0-Greyhole/Mix/size;
#X msg 1165 190 0.5;
#X obj 1165 210 s \$0-Greyhole/Mix/diffusion;
#X obj 1405 190 r \$0-Greyhole/Mix/diffusion;
#X msg 1405 210 /Greyhole/Mix/diffusion \$1;
#X obj 1645 190 route /Greyhole/Mix/diffusion;
#X obj 1645 210 s \$0-Greyhole/Mix/diffusion;
#X msg 1165 230 0.9;
#X obj 1165 250 s \$0-Greyhole/Mix/feedback;
#X obj 1405 230 r \$0-Greyhole/Mix/feedback;
#X msg 1405 250 /Greyhole/Mix/feedback \$1;
#X obj 1645 230 route /Greyhole/Mix/feedback;
#X obj 1645 250 s \$0-Greyhole/Mix/feedback;
#X msg 1165 270 0.1;
#X obj 1165 290 s \$0-Greyhole/Mod/modDepth;
#X obj 1405 270 r \$0-Greyhole/Mod/modDepth;
#X msg 1405 290 /Greyhole/Mod/modDepth \$1;
#X obj 1645 270 route /Greyhole/Mod/modDepth;
#X obj 1645 290 s \$0-Greyhole/Mod/modDepth;
#X msg 1165 310 2;
#X obj 1165 330 s \$0-Greyhole/Mod/modFreq;
#X obj 1405 310 r \$0-Greyhole/Mod/modFreq;
#X msg 1405 330 /Greyhole/Mod/modFreq \$1;
#X obj 1645 310 route /Greyhole/Mod/modFreq;
#X obj 1645 330 s \$0-Greyhole/Mod/modFreq;
#X text 0 100 Generated Sat Dec 3 11:49:01 2022 by faust2pd v2.16.
See http://faust.grame.fr and http://purelang.bitbucket.org.;
#X obj 371 171 / 100;
#X obj 369 197 * 1.45;
#X obj 369 218 + 0.001;
#X obj 441 171 / 40;
#X obj 437 203 + 0.5;
#X obj 369 143 r pot1;
#X obj 435 142 r pot2;
#X obj 490 139 r pot3;
#X obj 556 138 r pot5;
#X obj 611 142 r pot6;
#X obj 677 141 r pot7;
#X obj 732 138 r pot8;
#X obj 488 169 / 100;
#X obj 551 174 / 101;
#X obj 615 176 / 101;
#X obj 673 179 / 100;
#X obj 739 174 / 10;
#X connect 0 0 7 1;
#X connect 1 0 7 2;
#X connect 2 0 4 0;
#X connect 2 0 11 0;
#X connect 3 0 4 0;
#X connect 4 0 5 0;
#X connect 6 0 7 0;
#X connect 7 0 8 0;
#X connect 7 1 9 0;
#X connect 7 2 10 0;
#X connect 28 0 38 0;
#X connect 28 0 44 0;
#X connect 28 0 50 0;
#X connect 28 0 56 0;
#X connect 28 0 62 0;
#X connect 28 0 68 0;
#X connect 28 0 74 0;
#X connect 31 0 36 0;
#X connect 32 0 33 0;
#X connect 34 0 35 0;
#X connect 35 0 29 0;
#X connect 36 0 37 0;
#X connect 36 1 42 0;
#X connect 38 0 39 0;
#X connect 40 0 41 0;
#X connect 41 0 29 0;
#X connect 42 0 43 0;
#X connect 42 1 48 0;
#X connect 44 0 45 0;
#X connect 46 0 47 0;
#X connect 47 0 29 0;
#X connect 48 0 49 0;
#X connect 48 1 54 0;
#X connect 50 0 51 0;
#X connect 52 0 53 0;
#X connect 53 0 29 0;
#X connect 54 0 55 0;
#X connect 54 1 60 0;
#X connect 56 0 57 0;
#X connect 58 0 59 0;
#X connect 59 0 29 0;
#X connect 60 0 61 0;
#X connect 60 1 66 0;
#X connect 62 0 63 0;
#X connect 64 0 65 0;
#X connect 65 0 29 0;
#X connect 66 0 67 0;
#X connect 66 1 72 0;
#X connect 68 0 69 0;
#X connect 70 0 71 0;
#X connect 71 0 29 0;
#X connect 72 0 73 0;
#X connect 72 1 78 0;
#X connect 74 0 75 0;
#X connect 76 0 77 0;
#X connect 77 0 29 0;
#X connect 78 0 79 0;
#X connect 81 0 82 0;
#X connect 82 0 83 0;
#X connect 83 0 39 0;
#X connect 84 0 85 0;
#X connect 85 0 51 0;
#X connect 86 0 81 0;
#X connect 87 0 84 0;
#X connect 88 0 93 0;
#X connect 89 0 94 0;
#X connect 90 0 95 0;
#X connect 91 0 96 0;
#X connect 92 0 97 0;
#X connect 93 0 63 0;
#X connect 94 0 45 0;
#X connect 95 0 57 0;
#X connect 96 0 69 0;
#X connect 97 0 75 0;
#X coords 0 -1 1 1 1135 80 1 0 0;
