#N canvas 36 152 1241 605 12;
#X obj 13 14 loadbang;
#X obj -13 87 snapshot~;
#X obj 97 95 snapshot~;
#X obj 174 75 snapshot~;
#X obj 258 79 snapshot~;
#X obj 180 342 s knob3;
#X obj 254 341 s knob4;
#X obj 332 79 s bela_setDigital;
#X msg 40 383 connect bela.local 7562;
#X obj 286 577 netsend -u -b;
#X obj 413 504 list prepend send;
#X obj 412 529 list trim;
#X obj 318 862 list prepend send;
#X obj 317 889 list trim;
#X msg 410 556 disconnect;
#X obj 643 588 r switch1;
#X obj 431 382 bang;
#X obj 425 356 bng 15 250 50 0 empty empty empty 17 7 0 10 #fcfcfc
#000000 #000000;
#X obj 11 660 r knob1;
#X obj 33 707 vandemux;
#X obj 256 661 r knob2;
#X obj 273 706 vandemux;
#X obj 479 726 vandemux;
#X obj 684 713 vandemux;
#X obj 470 663 r knob3;
#X floatatom 122 749 5 0 0 0 - - - 0;
#X floatatom 236 751 5 0 0 0 - - - 0;
#X floatatom 355 749 5 0 0 0 - - - 0;
#X floatatom 472 754 5 0 0 0 - - - 0;
#X floatatom 575 747 5 0 0 0 - - - 0;
#X obj 693 667 r knob4;
#X floatatom 658 759 5 0 0 0 - - - 0;
#X floatatom 761 750 5 0 0 0 - - - 0;
#X obj 54 934 s pot5;
#X obj 207 935 s pot2;
#X obj 312 938 s pot6;
#X obj 439 933 s pot3;
#X obj 572 942 s pot7;
#X obj 678 931 s pot4;
#X obj 807 938 s pot8;
#X floatatom -1 742 5 0 0 0 - - - 0;
#X obj -36 932 s pot1;
#X obj 23 163 i;
#X floatatom 70 222 5 0 0 0 - - - 0;
#X obj 27 241 !=;
#X obj -9 270 spigot;
#X floatatom -9 300 5 0 0 0 - - - 0;
#X obj 25 190 t f f b;
#X obj 113 165 i;
#X floatatom 149 220 5 0 0 0 - - - 0;
#X obj 117 243 !=;
#X obj 81 272 spigot;
#X floatatom 81 296 5 0 0 0 - - - 0;
#X obj 115 192 t f f b;
#X obj 189 141 * 100;
#X obj 189 164 i;
#X floatatom 226 225 5 0 0 0 - - - 0;
#X obj 193 242 !=;
#X obj 157 271 spigot;
#X floatatom 157 295 5 0 0 0 - - - 0;
#X obj 191 191 t f f b;
#X obj 271 129 * 100;
#X obj 270 165 i;
#X floatatom 307 226 5 0 0 0 - - - 0;
#X obj 274 243 !=;
#X obj 238 272 spigot;
#X floatatom 240 294 5 0 0 0 - - - 0;
#X obj 272 192 t f f b;
#X obj 16 47 metro 250;
#X obj 107 143 * 100;
#X obj 95 319 min 100;
#X obj 11 321 min 100;
#X obj 20 112 / 0.83;
#X obj 31 137 * 100;
#X obj 111 121 / 0.83;
#X obj -8 346 s knob1;
#X obj 99 343 s knob2;
#X obj 191 111 / 0.83;
#X obj 272 105 / 0.83;
#X obj 104 46 adc~ 3 4 5 6;
#X obj 395 268 t b b;
#X obj 173 320 min 100;
#X obj 266 316 min 100;
#X floatatom 578 128 5 0 0 0 - - - 0;
#X obj 592 98 * 2;
#X obj 577 163 print 3way;
#X floatatom 861 128 5 0 0 0 - - - 0;
#X obj 875 98 * 2;
#X obj 511 198 s switch2;
#X obj 781 200 s switch1;
#X obj 860 163 print 3wayv2;
#X obj 414 476 oscformat mytext;
#X obj 318 833 oscformat /mynumbers;
#X obj 505 328 oscformat /clearscreen;
#X obj 421 326 delay 1000;
#X obj 445 296 t b b;
#X msg 17 797 47 0 \$1;
#X msg 136 793 112 0 \$1;
#X msg 250 794 47 16 \$1;
#X msg 337 795 112 16 \$1;
#X msg 452 794 47 32 \$1;
#X msg 638 794 47 48 \$1;
#X msg 725 795 112 48 \$1;
#X obj 492 44 r bela_digitalIn19;
#X obj 632 43 r bela_digitalIn20;
#X obj 775 44 r bela_digitalIn21;
#X obj 915 43 r bela_digitalIn22;
#X msg 332 36 in 19;
#X msg 391 10 in 20;
#X msg 444 12 in 21;
#X msg 392 37 in 22;
#X msg 20 429 0 0 Delay;
#X msg 123 432 0 16 Size;
#X msg 229 431 0 32 Feedbck;
#X msg 327 430 0 48 Mix;
#X msg 434 430 65 0 Damping;
#X msg 544 429 65 16 Diffuse;
#X msg 664 432 65 32 ModDep;
#X msg 785 436 65 48 ModFreq;
#X msg 745 154 0;
#X msg 539 792 112 32 \$1;
#X connect 0 0 107 0;
#X connect 0 0 68 0;
#X connect 0 0 110 0;
#X connect 0 0 108 0;
#X connect 0 0 109 0;
#X connect 0 0 80 0;
#X connect 0 0 119 0;
#X connect 1 0 72 0;
#X connect 2 0 74 0;
#X connect 3 0 77 0;
#X connect 4 0 78 0;
#X connect 8 0 9 0;
#X connect 10 0 11 0;
#X connect 11 0 9 0;
#X connect 12 0 13 0;
#X connect 13 0 9 0;
#X connect 14 0 9 0;
#X connect 15 0 19 1;
#X connect 15 0 21 1;
#X connect 15 0 22 1;
#X connect 15 0 23 1;
#X connect 16 0 114 0;
#X connect 16 0 111 0;
#X connect 16 0 113 0;
#X connect 16 0 112 0;
#X connect 16 0 115 0;
#X connect 16 0 116 0;
#X connect 16 0 117 0;
#X connect 16 0 118 0;
#X connect 17 0 16 0;
#X connect 18 0 19 0;
#X connect 19 0 40 0;
#X connect 19 1 25 0;
#X connect 20 0 21 0;
#X connect 21 0 26 0;
#X connect 21 1 27 0;
#X connect 22 0 28 0;
#X connect 22 1 29 0;
#X connect 23 0 31 0;
#X connect 23 1 32 0;
#X connect 24 0 22 0;
#X connect 25 0 33 0;
#X connect 25 0 97 0;
#X connect 26 0 34 0;
#X connect 26 0 98 0;
#X connect 27 0 35 0;
#X connect 27 0 99 0;
#X connect 28 0 36 0;
#X connect 28 0 100 0;
#X connect 29 0 37 0;
#X connect 29 0 120 0;
#X connect 30 0 23 0;
#X connect 31 0 38 0;
#X connect 31 0 101 0;
#X connect 32 0 39 0;
#X connect 32 0 102 0;
#X connect 40 0 41 0;
#X connect 40 0 96 0;
#X connect 42 0 47 0;
#X connect 43 0 44 1;
#X connect 44 0 45 1;
#X connect 45 0 46 0;
#X connect 46 0 43 0;
#X connect 46 0 71 0;
#X connect 47 0 45 0;
#X connect 47 1 44 0;
#X connect 47 2 43 0;
#X connect 48 0 53 0;
#X connect 49 0 50 1;
#X connect 50 0 51 1;
#X connect 51 0 52 0;
#X connect 52 0 49 0;
#X connect 52 0 70 0;
#X connect 53 0 51 0;
#X connect 53 1 50 0;
#X connect 53 2 49 0;
#X connect 54 0 55 0;
#X connect 55 0 60 0;
#X connect 56 0 57 1;
#X connect 57 0 58 1;
#X connect 58 0 59 0;
#X connect 59 0 56 0;
#X connect 59 0 81 0;
#X connect 60 0 58 0;
#X connect 60 1 57 0;
#X connect 60 2 56 0;
#X connect 61 0 62 0;
#X connect 62 0 67 0;
#X connect 63 0 64 1;
#X connect 64 0 65 1;
#X connect 65 0 66 0;
#X connect 66 0 63 0;
#X connect 66 0 82 0;
#X connect 67 0 65 0;
#X connect 67 1 64 0;
#X connect 67 2 63 0;
#X connect 68 0 1 0;
#X connect 68 0 2 0;
#X connect 68 0 3 0;
#X connect 68 0 4 0;
#X connect 69 0 48 0;
#X connect 70 0 76 0;
#X connect 71 0 75 0;
#X connect 72 0 73 0;
#X connect 73 0 42 0;
#X connect 74 0 69 0;
#X connect 77 0 54 0;
#X connect 78 0 61 0;
#X connect 79 0 1 0;
#X connect 79 1 2 0;
#X connect 79 2 3 0;
#X connect 79 3 4 0;
#X connect 80 0 95 0;
#X connect 80 1 8 0;
#X connect 81 0 5 0;
#X connect 82 0 6 0;
#X connect 83 0 85 0;
#X connect 83 0 88 0;
#X connect 84 0 83 0;
#X connect 86 0 90 0;
#X connect 86 0 89 0;
#X connect 87 0 86 0;
#X connect 91 0 10 0;
#X connect 92 0 12 0;
#X connect 93 0 10 0;
#X connect 94 0 17 0;
#X connect 95 0 94 0;
#X connect 95 1 93 0;
#X connect 96 0 92 0;
#X connect 97 0 92 0;
#X connect 98 0 92 0;
#X connect 99 0 92 0;
#X connect 100 0 92 0;
#X connect 101 0 92 0;
#X connect 102 0 92 0;
#X connect 103 0 83 0;
#X connect 104 0 84 0;
#X connect 105 0 86 0;
#X connect 106 0 87 0;
#X connect 107 0 7 0;
#X connect 108 0 7 0;
#X connect 109 0 7 0;
#X connect 110 0 7 0;
#X connect 111 0 91 0;
#X connect 112 0 91 0;
#X connect 113 0 91 0;
#X connect 114 0 91 0;
#X connect 115 0 91 0;
#X connect 116 0 91 0;
#X connect 117 0 91 0;
#X connect 118 0 91 0;
#X connect 119 0 89 0;
#X connect 120 0 92 0;
